HIERARCHY
ROOT root
{
	OFFSET 0.000000 0.000000 0.000000
	CHANNELS 6 Xposition Yposition Zposition Zrotation Yrotation Xrotation
	JOINT lhip
	{
		OFFSET 0.058581 -0.082280 -0.017664
		CHANNELS 3 Zrotation Yrotation Xrotation
		JOINT lknee
		{
			OFFSET 0.043451 -0.386469 0.008037
			CHANNELS 3 Zrotation Yrotation Xrotation
			JOINT lankle
			{
				OFFSET -0.014790 -0.426874 -0.037428
				CHANNELS 3 Zrotation Yrotation Xrotation
				JOINT ltoe
				{
					OFFSET 0.041054 -0.060286 0.122042
					CHANNELS 3 Zrotation Yrotation Xrotation
					End Site
					{
						OFFSET 0.000000 0.000000 0.000000
					}
				}
			}
		}
	}
	JOINT rhip
	{
		OFFSET -0.060310 -0.090513 -0.013543
		CHANNELS 3 Zrotation Yrotation Xrotation
		JOINT rknee
		{
			OFFSET -0.043257 -0.383688 -0.004843
			CHANNELS 3 Zrotation Yrotation Xrotation
			JOINT rankle
			{
				OFFSET 0.019056 -0.420046 -0.034562
				CHANNELS 3 Zrotation Yrotation Xrotation
				JOINT rtoe
				{
					OFFSET -0.034840 -0.062106 0.130323
					CHANNELS 3 Zrotation Yrotation Xrotation
					End Site
					{
						OFFSET 0.000000 0.000000 0.000000
					}
				}
			}
		}
	}
	JOINT lowerback
	{
		OFFSET 0.004439 0.124404 -0.038385
		CHANNELS 3 Zrotation Yrotation Xrotation
		JOINT upperback
		{
			OFFSET 0.004488 0.137956 0.026820
			CHANNELS 3 Zrotation Yrotation Xrotation
			JOINT chest
			{
				OFFSET -0.002265 0.056032 0.002855
				CHANNELS 3 Zrotation Yrotation Xrotation
				JOINT lowerneck
				{
					OFFSET -0.013390 0.211636 -0.033468
					CHANNELS 3 Zrotation Yrotation Xrotation
					JOINT upperneck
					{
						OFFSET 0.010113 0.088937 0.050410
						CHANNELS 3 Zrotation Yrotation Xrotation
						End Site
						{
							OFFSET 0.000000 0.000000 0.000000
						}
					}
				}
				JOINT lclavicle
				{
					OFFSET 0.071702 0.114000 -0.018898
					CHANNELS 3 Zrotation Yrotation Xrotation
					JOINT lshoulder
					{
						OFFSET 0.122921 0.045205 -0.019046
						CHANNELS 3 Zrotation Yrotation Xrotation
						JOINT lelbow
						{
							OFFSET 0.255332 -0.015649 -0.022946
							CHANNELS 3 Zrotation Yrotation Xrotation
							JOINT lwrist
							{
								OFFSET 0.265709 0.012698 -0.007375
								CHANNELS 3 Zrotation Yrotation Xrotation
								End Site
								{
									OFFSET 0.000000 0.000000 0.000000
								}
							}
						}
					}
				}
				JOINT rclavicle
				{
					OFFSET -0.082954 0.112472 -0.023707
					CHANNELS 3 Zrotation Yrotation Xrotation
					JOINT rshoulder
					{
						OFFSET -0.113228 0.046853 -0.008472
						CHANNELS 3 Zrotation Yrotation Xrotation
						JOINT relbow
						{
							OFFSET -0.260127 -0.014369 -0.031269
							CHANNELS 3 Zrotation Yrotation Xrotation
							JOINT rwrist
							{
								OFFSET -0.269108 0.006794 -0.006027
								CHANNELS 3 Zrotation Yrotation Xrotation
								End Site
								{
									OFFSET 0.000000 0.000000 0.000000
								}
							}
						}
					}
				}
			}
		}
	}
}
MOTION
Frames: 16
Frame Time: 0.033333
2.169224 0.749952 0.981660 -90.735371 2.974000 85.722588 9.825928 0.815958 5.709021 -3.504558 -5.357561 1.777024 -2.465536 7.542335 -17.353825 0.000000 -0.000000 0.000000 -4.660680 -2.391071 0.597866 2.786890 -1.396328 10.041096 7.021524 0.096753 -12.993914 0.000000 -0.000000 0.000000 -0.523019 3.131942 6.445575 3.710534 -1.471646 5.333922 1.555430 0.586470 0.923378 4.216202 0.798453 7.117662 1.917745 -7.948663 13.308271 -24.270768 2.689945 4.722512 -65.007015 -6.934401 10.183547 13.270028 -26.777375 9.494378 -11.030371 -7.539607 -3.409113 25.383567 -3.811014 4.739667 60.681406 -0.765607 5.303651 -23.205899 24.270708 -4.960911 8.185275 2.915317 -2.778071 
2.168875 0.753665 0.981786 -90.553378 2.770757 85.553382 9.810402 0.702698 6.091672 -3.328158 -5.498058 1.381528 -2.758426 7.563915 -17.052115 0.000000 -0.000000 0.000000 -4.652565 -2.190643 0.790451 2.897530 -1.563778 10.191704 6.862322 -0.115391 -13.274463 0.000000 -0.000000 0.000000 -0.200613 2.685325 6.859006 3.796132 -1.778963 5.205427 1.604560 0.419345 1.042530 4.416713 0.587033 6.849801 2.097886 -8.088353 13.356605 -24.266164 2.413910 4.615841 -65.443708 -7.073505 10.518738 13.375970 -26.138011 9.552664 -10.913810 -7.839544 -3.622502 25.191244 -3.705280 4.516260 60.255393 -0.946080 5.200152 -23.146107 24.247559 -5.054040 7.827857 3.053726 -3.080512 
2.168739 0.758577 0.982022 -90.390840 2.517430 85.707569 9.814272 0.694752 5.878057 -3.218232 -5.712321 1.501861 -2.964710 7.698874 -17.022222 0.000000 -0.000000 0.000000 -4.587157 -2.204854 0.556917 2.963072 -1.501246 10.503923 6.726757 -0.349952 -13.499038 0.000000 -0.000000 0.000000 0.200017 2.283894 6.926430 3.935798 -2.091662 5.030872 1.619763 0.150333 1.101879 4.520980 0.319208 6.634675 2.129727 -7.968060 13.406442 -24.525780 2.159344 4.681153 -65.504382 -7.266834 10.699027 13.277946 -25.788827 9.643520 -10.984284 -7.778550 -3.596619 25.067933 -3.760270 4.329132 59.580545 -1.156362 5.014413 -23.030809 24.161736 -5.215355 7.821606 3.039324 -3.268416 
2.167592 0.767130 0.982367 -90.272722 2.066767 85.524295 9.790456 0.754167 6.000264 -2.920078 -5.867411 1.900529 -3.498557 7.557319 -17.212205 0.000000 -0.000000 0.000000 -4.567788 -2.051064 0.902641 3.150689 -1.630836 10.638881 6.472681 -0.440358 -13.846694 0.000000 -0.000000 0.000000 1.107801 1.514898 7.268489 4.094996 -2.600496 5.181755 1.547647 -0.223750 1.138911 4.437036 -0.053838 6.383264 1.965288 -7.820154 13.455123 -25.044102 1.863944 4.611354 -65.435855 -7.646082 10.790553 13.298950 -25.876317 9.616307 -11.363713 -8.199816 -3.056837 24.812321 -3.659361 3.943732 58.417075 -1.476643 4.598727 -22.909889 24.049462 -5.277156 8.448569 3.168331 -3.037980 
2.167171 0.770336 0.982469 -90.218846 1.916823 85.457066 9.803859 0.751603 6.087032 -2.827116 -5.988273 1.957229 -3.676945 7.606009 -17.254745 0.000000 -0.000000 0.000000 -4.549533 -1.901201 1.030667 3.298860 -1.601882 10.672402 6.287321 -0.638987 -14.034286 0.000000 -0.000000 0.000000 1.521985 1.160346 7.387699 4.128192 -2.759998 5.196941 1.483441 -0.357437 1.212134 4.322814 -0.062863 6.133550 1.784406 -7.596194 13.485541 -25.261545 1.770807 4.640934 -65.296387 -7.810692 10.816459 13.296954 -26.032910 9.608628 -11.444070 -8.317575 -3.199333 24.729431 -3.638536 3.834200 57.961944 -1.484359 4.452887 -22.821983 23.917652 -5.414552 8.460593 3.182414 -3.035674 
2.166341 0.776946 0.982698 -90.399701 1.466776 85.515567 9.791561 1.225335 6.047014 -2.786480 -6.221867 2.118880 -3.990141 7.432826 -17.225104 0.000000 -0.000000 0.000000 -4.682597 -2.032711 0.743854 3.505701 -1.295944 11.220125 5.925172 -0.532964 -14.480641 0.000000 -0.000000 0.000000 2.333641 0.492346 7.508603 4.154798 -2.934058 5.145288 1.336301 -0.615513 1.144627 3.891826 -0.262144 6.166846 1.661437 -6.983518 13.551778 -25.795623 1.801876 5.075958 -64.888904 -7.936325 10.627152 13.277971 -27.182137 9.387739 -11.330491 -8.035703 -3.121410 24.558907 -3.549723 3.811891 56.930461 -1.517913 3.881102 -22.505953 23.575091 -5.998693 8.474951 2.933326 -3.219358 
2.165407 0.783974 0.982870 -90.522245 0.994571 85.493407 9.717948 1.503218 5.881462 -2.696486 -6.432073 2.709304 -4.287766 7.446385 -17.262481 0.000000 -0.000000 0.000000 -4.842478 -2.047565 0.598243 3.783553 -1.029822 11.725455 5.619569 -0.314968 -14.745031 0.000000 -0.000000 0.000000 3.286436 -0.241431 7.992617 4.129146 -3.153699 4.827478 1.143161 -0.810884 1.108994 3.587357 -0.453424 5.688592 1.196786 -6.634082 13.685487 -26.122029 1.898262 4.783602 -64.612044 -7.769766 10.680218 13.092821 -27.988300 9.504981 -11.553692 -8.062955 -2.825333 24.368420 -3.549893 3.467734 55.797611 -1.785897 3.479987 -22.136860 23.190377 -6.416399 8.452468 3.082076 -2.799989 
2.163345 0.790867 0.983123 -90.282843 0.545634 84.959555 9.614150 1.361871 6.082037 -2.620867 -7.016102 3.659525 -4.708811 7.717380 -17.574713 0.000000 -0.000000 0.000000 -4.985566 -1.450959 1.453326 4.168364 -1.038437 11.707511 5.360629 -0.763599 -15.108061 0.000000 -0.000000 0.000000 4.331990 -1.155105 8.704274 4.108539 -3.507722 4.642189 0.935441 -1.114210 1.068332 3.085571 -0.436509 5.843539 0.719562 -5.916445 14.043564 -26.362288 1.561454 5.084459 -64.363391 -7.958436 10.588504 13.082943 -28.596020 9.545995 -11.665794 -8.516715 -2.385872 24.010404 -3.230592 3.303137 54.753347 -2.015251 2.985598 -21.779933 22.468375 -6.681561 8.288075 3.328581 -2.361365 
2.161763 0.797442 0.983438 -90.177964 -0.045265 84.753058 9.221326 0.622539 5.799299 -2.511060 -7.072759 4.842513 -4.924456 8.256790 -17.703680 0.000000 -0.000000 0.000000 -5.369011 -1.329524 1.781949 4.601461 -0.873596 11.896012 5.181945 -0.854741 -15.449044 0.000000 -0.000000 0.000000 5.255026 -1.697616 9.156916 4.137207 -3.976497 4.394709 0.710311 -1.542828 1.067494 2.656713 -0.262824 5.752842 0.331350 -5.258058 14.141244 -26.602209 1.370387 5.234254 -63.957899 -8.101055 10.797528 13.027445 -29.419641 9.869019 -11.920248 -8.591606 -2.126417 23.851450 -3.016615 3.017579 53.394392 -1.992613 2.703887 -21.243080 21.626142 -7.113721 7.993857 3.499271 -2.122410 
2.159666 0.803579 0.983962 -90.118848 -0.659675 84.577591 9.044961 0.755747 5.415319 -2.599773 -7.410888 6.079413 -5.563874 8.105190 -17.589048 0.000000 -0.000000 0.000000 -5.575635 -1.262341 2.094027 4.647139 -0.696522 12.009868 4.948638 -0.995424 -15.775975 0.000000 -0.000000 0.000000 5.744366 -2.199215 9.335187 4.345012 -4.356815 4.502880 0.770339 -1.818450 0.962799 2.211534 -0.218645 5.941232 -0.129773 -4.621929 14.085078 -26.898750 0.823963 5.426056 -63.577642 -8.388265 10.964959 12.953123 -29.981036 10.130387 -11.777622 -9.404884 -1.354508 23.674424 -2.563446 3.052345 51.920900 -1.892258 2.212360 -20.901910 20.772156 -7.548771 7.386264 3.619138 -1.952354 
2.156688 0.809495 0.984763 -90.662393 -1.177116 84.300489 8.874117 0.307965 5.729169 -2.507728 -7.192472 6.543461 -6.260716 8.454934 -17.437652 0.000000 -0.000000 0.000000 -5.654068 -0.932290 2.588032 4.653618 -0.309012 11.918559 4.841695 -1.089375 -15.957871 0.000000 -0.000000 0.000000 6.114132 -2.343748 9.397315 4.570809 -4.521654 4.814958 0.901658 -1.906176 0.956247 1.929952 -0.041166 6.218745 -0.613459 -4.240734 14.239006 -26.859794 0.415228 5.479966 -63.374113 -8.616019 11.314940 12.842229 -30.787308 10.399059 -12.816869 -9.363991 -1.042930 23.563073 -2.034684 3.038226 50.463405 -1.658377 1.901012 -20.607019 19.751193 -7.959321 7.688759 3.693162 -1.348521 
2.153904 0.814423 0.985813 -91.404692 -1.938193 84.279573 8.602830 0.163618 5.855483 -2.511485 -6.674335 6.526408 -7.040213 8.520610 -16.889608 0.000000 -0.000000 0.000000 -6.108038 -0.642503 2.746309 4.626281 0.074091 11.830959 4.899918 -0.938225 -16.040289 0.000000 -0.000000 0.000000 6.131766 -2.447286 9.429192 4.689385 -4.556401 4.961725 1.075224 -1.817031 0.742154 1.569342 0.189809 7.002870 -1.064965 -3.815053 14.459322 -26.687928 0.325598 5.605472 -63.033724 -8.673101 11.524290 12.622935 -31.743357 11.070959 -13.643492 -9.417419 -0.563894 23.521582 -1.573768 3.345004 49.120631 -1.153537 1.569332 -20.071893 18.883077 -7.984830 8.280599 3.735401 -0.858719 
2.151708 0.818987 0.986702 -91.911946 -2.566764 84.376417 8.714086 0.159225 5.336774 -2.715555 -6.454279 6.692948 -7.805661 8.283715 -16.406340 0.000000 -0.000000 0.000000 -6.401834 -0.570919 2.691798 4.528169 0.388273 11.880957 4.908749 -0.881227 -16.233341 0.000000 -0.000000 0.000000 6.135374 -2.543935 9.574738 4.837385 -4.651848 4.730376 1.164776 -1.774194 0.796049 1.355956 0.551947 7.177893 -1.465382 -3.495991 14.869397 -26.423014 0.348155 5.751951 -62.557530 -8.694454 11.582696 12.430137 -32.797479 11.718434 -13.252570 -9.718073 -0.262236 23.454795 -1.273711 3.288986 48.191288 -0.594316 1.487711 -19.979390 18.365574 -7.547270 8.057958 3.585792 0.041843 
2.147629 0.822728 0.988313 -92.677411 -3.183686 84.050099 8.806665 0.328664 5.386010 -2.822467 -6.468602 6.582612 -8.021419 8.362748 -16.221726 0.000000 -0.000000 0.000000 -6.716861 -0.844475 3.361399 4.277213 1.199077 11.658724 4.981780 -0.532150 -16.302960 0.000000 -0.000000 0.000000 6.129570 -2.459101 9.910887 4.872220 -4.669333 4.788415 1.220851 -1.623268 0.700850 0.996954 0.845173 7.721841 -1.886012 -3.091303 15.168906 -26.204909 0.367155 5.559324 -61.923113 -8.638875 11.514109 12.018482 -33.046833 11.862259 -12.555058 -10.058585 -0.606981 23.459801 -0.940106 3.258926 47.383855 -0.009768 1.459536 -19.640800 17.975441 -7.626689 7.518372 3.554893 0.543112 
2.143362 0.826127 0.989270 -93.242885 -3.644958 83.867492 9.109196 0.388922 4.882482 -2.894616 -6.012341 6.620211 -7.920893 8.313175 -15.947271 0.000000 -0.000000 0.000000 -6.847934 -0.943696 3.885773 4.054836 1.868556 11.438322 4.886758 -0.469221 -16.481387 0.000000 -0.000000 0.000000 6.199922 -2.287251 9.972288 4.907067 -4.753952 4.890113 1.165745 -1.574640 0.930351 0.842910 1.085319 7.726724 -2.141007 -2.936767 15.370656 -25.929542 0.251102 5.432686 -61.296413 -8.710717 11.369185 12.087942 -32.868190 11.273150 -12.097098 -10.334239 -0.885015 23.469175 -0.579261 3.058601 46.936469 0.606203 1.764134 -19.456255 18.025015 -7.773659 6.998797 3.601312 0.592189 
2.139304 0.828562 0.990139 -94.154137 -4.360036 83.713027 9.035983 0.453946 4.215267 -2.804097 -5.457943 6.767973 -7.920928 8.477558 -15.546383 0.000000 -0.000000 0.000000 -7.386349 -0.813294 4.154723 3.873446 2.433719 11.525698 4.859506 -0.198903 -16.751420 0.000000 -0.000000 0.000000 5.978231 -1.868286 10.176281 4.764823 -4.614208 5.012956 1.159902 -1.461276 1.038307 0.627266 1.594893 7.873674 -2.442168 -2.670542 15.598355 -25.503751 0.110167 5.372772 -60.871005 -8.601878 11.173592 12.416048 -32.543503 10.858074 -12.179834 -10.435317 -1.065230 23.521903 -0.245941 3.039675 46.691568 1.609499 1.848173 -19.137186 17.942255 -7.656833 7.460875 3.741253 0.748593 
